<?xml version="1.0" standalone="no"?>
<!DOCTYPE svg PUBLIC "-//W3C//DTD SVG 20010904//EN"
 "http://www.w3.org/TR/2001/REC-SVG-20010904/DTD/svg10.dtd">
<svg version="1.0" xmlns="http://www.w3.org/2000/svg"
 width="64.000000pt" height="64.000000pt" viewBox="0 0 64.000000 64.000000"
 preserveAspectRatio="xMidYMid meet">

<g transform="translate(0.000000,64.000000) scale(0.100000,-0.100000)"
fill="#000000" stroke="none">
<path d="M152 603 c19 -21 40 -47 46 -57 9 -18 11 -17 25 11 9 17 30 42 47 57
l32 26 -93 0 -93 0 36 -37z"/>
<path d="M364 627 c-52 -20 -91 -55 -113 -100 -31 -63 -28 -78 10 -67 70 20
132 84 145 148 7 35 4 36 -42 19z"/>
<path d="M455 618 c25 -80 75 -135 142 -156 21 -6 39 -10 41 -7 2 2 -1 20 -8
40 -16 49 -66 104 -115 126 -55 25 -68 24 -60 -3z"/>
<path d="M602 607 c29 -29 33 -31 36 -14 6 32 -6 47 -38 47 l-31 0 33 -33z"/>
<path d="M10 608 c0 -32 32 -81 72 -110 35 -27 93 -50 101 -41 9 8 -14 66 -41
101 -48 65 -132 96 -132 50z"/>
<path d="M406 520 c-14 -22 -41 -50 -59 -61 l-33 -22 61 -61 60 -61 27 36 c14
20 43 46 63 59 34 21 35 24 19 33 -29 15 -75 59 -94 90 l-17 27 -27 -40z"/>
<path d="M0 431 l0 -94 20 26 c11 14 36 36 56 48 33 20 34 23 18 32 -11 5 -36
26 -56 45 l-38 36 0 -93z"/>
<path d="M113 389 c-23 -11 -53 -35 -66 -52 -25 -34 -50 -97 -42 -105 3 -3 22
0 42 6 59 18 114 76 133 141 11 38 -5 41 -67 10z"/>
<path d="M230 395 c0 -24 35 -87 62 -111 50 -46 118 -68 118 -39 0 45 -56 117
-112 146 -45 23 -68 24 -68 4z"/>
<path d="M575 396 c-53 -24 -98 -77 -115 -136 -9 -32 -9 -32 22 -26 67 13 129
76 153 154 8 26 -13 29 -60 8z"/>
<path d="M181 293 c-11 -18 -39 -45 -61 -59 l-40 -27 27 -17 c31 -19 75 -65
90 -94 9 -16 12 -15 33 19 13 20 39 49 59 63 l37 27 -62 60 -61 60 -22 -32z"/>
<path d="M616 274 c-10 -15 -34 -35 -53 -47 -32 -18 -33 -21 -16 -30 10 -5 35
-26 56 -45 l37 -36 0 92 c0 51 -1 92 -2 92 -2 0 -11 -12 -22 -26z"/>
<path d="M0 178 c1 -29 39 -95 73 -125 32 -28 103 -60 112 -51 9 9 -20 80 -46
111 -38 46 -139 94 -139 65z"/>
<path d="M376 179 c-67 -19 -129 -84 -142 -148 -7 -32 -6 -33 17 -26 81 24
140 80 154 146 8 37 7 38 -29 28z"/>
<path d="M457 183 c-10 -10 24 -88 51 -116 32 -34 73 -57 102 -57 39 0 18 70
-37 122 -28 27 -106 61 -116 51z"/>
<path d="M417 83 c-9 -17 -30 -42 -47 -57 l-32 -26 93 0 93 0 -36 38 c-19 20
-40 46 -46 56 -9 18 -11 17 -25 -11z"/>
<path d="M0 40 c0 -32 15 -44 49 -38 18 3 17 6 -14 36 l-35 33 0 -31z"/>
</g>
</svg>
