<?xml version="1.0" standalone="no"?>
<!DOCTYPE svg PUBLIC "-//W3C//DTD SVG 20010904//EN"
 "http://www.w3.org/TR/2001/REC-SVG-20010904/DTD/svg10.dtd">
<svg version="1.0" xmlns="http://www.w3.org/2000/svg"
 width="64.000000pt" height="64.000000pt" viewBox="0 0 64.000000 64.000000"
 preserveAspectRatio="xMidYMid meet">

<g transform="translate(0.000000,64.000000) scale(0.100000,-0.100000)"
fill="#000000" stroke="none">
<path d="M76 564 c-24 -23 -24 -465 0 -488 23 -24 465 -24 488 0 24 23 24 465
0 488 -23 24 -465 24 -488 0z m85 -23 c-11 -7 -11 -15 -3 -40 12 -33 3 -41
-19 -15 -7 8 -21 13 -31 11 -14 -4 -18 1 -18 24 0 27 2 29 43 29 28 0 37 -3
28 -9z m149 -30 c0 -35 -7 -46 -71 -110 -64 -64 -75 -71 -110 -71 l-39 0 0 69
c0 80 11 90 55 55 36 -28 59 -31 51 -6 -26 87 -17 102 60 102 l54 0 0 -39z
m140 24 c11 -14 10 -33 -6 -87 -8 -25 15 -22 51 6 44 35 55 25 55 -55 l0 -69
-39 0 c-35 0 -46 7 -110 71 -64 64 -71 75 -71 110 l0 39 54 0 c35 0 58 -5 66
-15z m100 -14 c0 -23 -4 -28 -18 -24 -10 2 -24 -3 -31 -11 -22 -26 -31 -18
-19 15 8 25 8 33 -3 40 -9 6 0 9 29 9 40 0 42 -2 42 -29z m-213 -90 c2 -10 16
-24 29 -30 13 -6 29 -22 36 -36 6 -14 17 -25 24 -25 30 0 22 -23 -20 -65 -26
-25 -51 -45 -56 -45 -6 0 -10 -6 -10 -14 0 -32 -22 -25 -65 18 -25 26 -45 50
-45 55 0 5 -9 11 -20 14 -25 7 -26 27 -1 34 10 2 24 16 30 29 6 13 22 29 35
35 13 6 27 20 29 30 3 11 10 19 17 19 7 0 14 -8 17 -19z m-98 -192 c64 -64 71
-75 71 -110 l0 -39 -54 0 c-77 0 -86 15 -60 103 8 24 -15 21 -51 -7 -44 -35
-55 -25 -55 55 l0 69 39 0 c35 0 46 -7 110 -71z m311 2 c0 -80 -11 -90 -55
-55 -36 28 -59 31 -51 7 26 -88 17 -103 -60 -103 l-54 0 0 39 c0 35 7 46 71
110 64 64 75 71 110 71 l39 0 0 -69z m-392 -102 c-8 -25 -8 -33 3 -40 9 -6 0
-9 -28 -9 -41 0 -43 2 -43 29 0 23 4 28 18 24 10 -2 24 3 31 11 22 26 31 18
19 -15z m343 15 c7 -8 21 -13 31 -11 14 4 18 -1 18 -24 0 -27 -2 -29 -42 -29
-29 0 -38 3 -29 9 11 7 11 15 3 40 -12 33 -3 41 19 15z"/>
<path d="M290 345 c-15 -18 -10 -45 13 -59 34 -22 73 27 47 59 -16 19 -44 19
-60 0z m46 -16 c10 -17 -13 -36 -27 -22 -12 12 -4 33 11 33 5 0 12 -5 16 -11z"/>
</g>
</svg>
