<?xml version="1.0" standalone="no"?>
<!DOCTYPE svg PUBLIC "-//W3C//DTD SVG 20010904//EN"
 "http://www.w3.org/TR/2001/REC-SVG-20010904/DTD/svg10.dtd">
<svg version="1.0" xmlns="http://www.w3.org/2000/svg"
 width="64.000000pt" height="64.000000pt" viewBox="0 0 64.000000 64.000000"
 preserveAspectRatio="xMidYMid meet">

<g transform="translate(0.000000,64.000000) scale(0.100000,-0.100000)"
fill="#000000" stroke="none">
<path d="M35 605 l-25 -24 0 -261 0 -261 25 -24 24 -25 261 0 261 0 24 25 25
24 0 261 0 261 -25 24 -24 25 -261 0 -261 0 -24 -25z m125 -65 l0 -70 -65 0
-65 0 0 63 c0 35 3 67 7 70 3 4 33 7 65 7 l58 0 0 -70z m85 10 c-33 -33 -63
-60 -67 -60 -4 0 -8 27 -8 60 l0 60 67 0 67 0 -59 -60z m205 -72 c0 -22 -41
-3 -80 37 l-44 44 -52 -44 c-86 -74 -99 -56 -19 25 l69 70 63 -62 c35 -34 63
-66 63 -70z m20 72 c0 -33 -4 -60 -9 -60 -4 0 -31 27 -60 60 l-52 60 60 0 61
0 0 -60z m138 -12 l3 -68 -66 0 -65 0 0 70 0 71 63 -3 62 -3 3 -67z m-270 -36
c2 -24 -1 -32 -12 -32 -12 0 -16 10 -16 36 0 45 24 42 28 -4z m-48 -12 c0 -11
-7 -20 -15 -20 -18 0 -19 12 -3 28 16 16 18 15 18 -8z m85 0 c18 -19 17 -20
-3 -20 -15 0 -22 6 -22 20 0 11 2 20 3 20 2 0 12 -9 22 -20z m-217 -60 c2 -18
-8 -36 -37 -64 l-40 -39 40 -47 c21 -25 39 -55 39 -65 0 -14 -17 -3 -65 45
l-65 64 62 65 c62 64 49 60 -24 -8 l-38 -35 0 57 0 58 63 -3 c58 -3 62 -5 65
-28z m42 15 c-7 -8 -16 -15 -21 -15 -5 0 -9 7 -9 15 0 9 9 15 21 15 18 0 19
-2 9 -15z m218 -2 c3 -10 -21 -13 -97 -13 -93 0 -113 5 -94 24 13 12 186 2
191 -11z m52 -3 c0 -11 -5 -20 -10 -20 -7 0 -7 -6 0 -19 17 -32 13 -156 -6
-172 -14 -12 -15 -2 -13 97 1 61 -1 116 -5 122 -5 8 0 12 13 12 14 0 21 -6 21
-20z m140 -40 c0 -33 -1 -60 -3 -60 -1 0 -29 27 -62 60 l-59 60 62 0 62 0 0
-60z m-2 -150 l4 -70 -63 0 -63 0 59 62 60 62 -60 -53 c-46 -40 -61 -48 -63
-35 -2 9 14 35 37 58 l41 42 -40 39 c-26 25 -40 48 -40 64 0 24 5 21 62 -36
l62 -63 4 -70z m-408 69 c0 -89 -2 -100 -15 -89 -28 23 -18 190 12 190 2 0 3
-46 3 -101z m100 98 c0 -2 -18 -21 -40 -42 l-40 -39 0 42 0 42 40 0 c22 0 40
-1 40 -3z m120 -39 l0 -42 -42 39 c-43 41 -35 23 14 -30 l27 -30 -50 -44 -51
-44 -46 46 -46 47 39 41 c46 48 66 57 118 58 37 1 37 1 37 -41z m-260 -8 c0
-5 -5 -10 -11 -10 -5 0 -7 5 -4 10 3 6 8 10 11 10 2 0 4 -4 4 -10z m340 -11
c0 -5 -4 -9 -10 -9 -5 0 -10 7 -10 16 0 8 5 12 10 9 6 -3 10 -10 10 -16z
m-340 -39 c0 -21 -24 -27 -49 -11 -19 12 -4 31 25 31 17 0 24 -5 24 -20z m369
7 c14 -17 4 -27 -26 -27 -16 0 -23 6 -23 20 0 23 31 27 49 7z m-434 -87 l59
-60 -62 0 -62 0 0 60 c0 33 1 60 3 60 1 0 29 -27 62 -60z m170 20 l39 -40 -42
0 -42 0 0 40 c0 22 1 40 3 40 2 0 21 -18 42 -40z m155 0 l0 -40 -42 0 -42 0
39 40 c21 22 40 40 42 40 2 0 3 -18 3 -40z m-260 14 c0 -14 -3 -14 -15 -4 -8
7 -15 14 -15 16 0 2 7 4 15 4 8 0 15 -7 15 -16z m340 2 c0 -3 -4 -8 -10 -11
-5 -3 -10 -1 -10 4 0 6 5 11 10 11 6 0 10 -2 10 -4z m-305 -76 c18 -19 17 -20
-3 -20 -15 0 -22 6 -22 20 0 11 2 20 3 20 2 0 12 -9 22 -20z m225 -5 c-17 -20
-191 -18 -198 3 -3 9 22 12 103 12 96 0 106 -2 95 -15z m50 0 c0 -9 -9 -15
-21 -15 -18 0 -19 2 -9 15 7 8 16 15 21 15 5 0 9 -7 9 -15z m-310 -95 l0 -71
-62 3 -63 3 -3 68 -3 67 66 0 65 0 0 -70z m112 23 l48 -47 48 47 c26 26 56 47
67 47 14 0 2 -18 -50 -70 l-69 -70 -63 62 c-35 34 -63 66 -63 70 0 22 40 3 82
-39z m15 32 c9 -25 -2 -27 -22 -5 -17 18 -17 20 -1 20 9 0 19 -7 23 -15z m51
-17 c-2 -21 -8 -33 -18 -33 -10 0 -16 12 -18 33 -3 27 0 32 18 32 18 0 21 -5
18 -32z m52 29 c0 -2 -9 -12 -20 -22 -19 -18 -20 -17 -20 3 0 15 6 22 20 22
11 0 20 -2 20 -3z m218 -64 l-3 -68 -62 -3 -63 -3 0 71 0 70 65 0 66 0 -3 -67z
m-382 5 c75 -80 75 -78 5 -78 l-61 0 0 60 c0 33 4 60 8 60 4 0 26 -19 48 -42z
m244 -18 l0 -60 -67 0 -67 0 59 60 c33 33 63 60 67 60 4 0 8 -27 8 -60z"/>
</g>
</svg>
