<?xml version="1.0" standalone="no"?>
<!DOCTYPE svg PUBLIC "-//W3C//DTD SVG 20010904//EN"
 "http://www.w3.org/TR/2001/REC-SVG-20010904/DTD/svg10.dtd">
<svg version="1.0" xmlns="http://www.w3.org/2000/svg"
 width="64.000000pt" height="64.000000pt" viewBox="0 0 64.000000 64.000000"
 preserveAspectRatio="xMidYMid meet">

<g transform="translate(0.000000,64.000000) scale(0.100000,-0.100000)"
fill="#000000" stroke="none">
<path d="M0 565 c0 -43 4 -75 10 -75 6 0 10 28 10 65 l0 65 65 0 c37 0 65 4
65 10 0 6 -32 10 -75 10 l-75 0 0 -75z"/>
<path d="M180 630 c0 -6 28 -10 65 -10 l65 0 0 -145 0 -145 -145 0 -145 0 0
65 c0 37 -4 65 -10 65 -6 0 -10 -83 -10 -230 l0 -230 230 0 c147 0 230 4 230
10 0 6 -28 10 -65 10 l-65 0 0 145 0 145 145 0 145 0 0 -145 0 -145 -65 0
c-37 0 -65 -4 -65 -10 0 -6 32 -10 75 -10 l75 0 0 230 c0 147 -4 230 -10 230
-6 0 -10 -28 -10 -65 l0 -65 -145 0 -145 0 0 145 0 145 145 0 145 0 0 -65 c0
-37 4 -65 10 -65 6 0 10 32 10 75 l0 75 -230 0 c-147 0 -230 -4 -230 -10z
m130 -465 l0 -145 -145 0 -145 0 0 145 0 145 145 0 145 0 0 -145z"/>
<path d="M85 278 c-6 -13 -20 -27 -32 -33 -28 -12 -30 -25 -5 -25 23 0 62 40
62 63 0 24 -13 21 -25 -5z"/>
<path d="M220 282 c0 -23 40 -62 63 -62 24 0 21 13 -5 25 -13 6 -27 20 -33 33
-12 27 -25 29 -25 4z"/>
<path d="M112 216 c-11 -18 -10 -96 2 -104 18 -11 96 -10 104 2 11 18 10 96
-2 104 -18 11 -96 10 -104 -2z m93 -52 l0 -41 -41 0 -41 0 0 41 0 41 41 0 41
0 0 -41z"/>
<path d="M30 102 c0 -4 10 -12 23 -17 12 -6 26 -20 32 -33 12 -27 25 -29 25
-4 0 23 -40 62 -63 62 -9 0 -17 -3 -17 -8z"/>
<path d="M242 87 c-21 -23 -30 -57 -14 -57 4 0 12 10 17 23 6 12 20 26 33 32
27 12 29 25 4 25 -10 0 -28 -10 -40 -23z"/>
<path d="M85 588 c-6 -13 -20 -27 -32 -33 -28 -12 -30 -25 -5 -25 23 0 62 40
62 63 0 24 -13 21 -25 -5z"/>
<path d="M220 592 c0 -23 40 -62 63 -62 24 0 21 13 -5 25 -13 6 -27 20 -33 33
-12 27 -25 29 -25 4z"/>
<path d="M395 588 c-6 -13 -20 -27 -32 -33 -28 -12 -30 -25 -5 -25 23 0 62 40
62 63 0 24 -13 21 -25 -5z"/>
<path d="M530 592 c0 -23 40 -62 63 -62 24 0 21 13 -5 25 -13 6 -27 20 -33 33
-12 27 -25 29 -25 4z"/>
<path d="M112 526 c-11 -18 -10 -96 2 -104 18 -11 96 -10 104 2 11 18 10 96
-2 104 -18 11 -96 10 -104 -2z m93 -50 l0 -41 -41 0 -41 0 0 41 0 41 41 0 41
0 0 -41z"/>
<path d="M422 526 c-11 -18 -10 -96 2 -104 18 -11 96 -10 104 2 11 18 10 96
-2 104 -18 11 -96 10 -104 -2z m95 -50 l0 -41 -41 0 -41 0 0 41 0 41 41 0 41
0 0 -41z"/>
<path d="M30 412 c0 -4 10 -12 23 -17 12 -6 26 -20 32 -32 12 -28 25 -30 25
-5 0 23 -40 62 -63 62 -9 0 -17 -3 -17 -8z"/>
<path d="M242 397 c-21 -23 -30 -57 -14 -57 4 0 12 10 17 23 6 12 20 26 33 32
27 12 29 25 4 25 -10 0 -28 -10 -40 -23z"/>
<path d="M340 412 c0 -4 10 -12 23 -17 12 -6 26 -20 32 -32 12 -28 25 -30 25
-5 0 23 -40 62 -63 62 -9 0 -17 -3 -17 -8z"/>
<path d="M552 397 c-21 -23 -30 -57 -14 -57 4 0 12 10 17 23 6 12 20 26 33 32
27 12 29 25 4 25 -10 0 -28 -10 -40 -23z"/>
<path d="M395 278 c-6 -13 -20 -27 -32 -33 -28 -12 -30 -25 -5 -25 23 0 62 40
62 63 0 24 -13 21 -25 -5z"/>
<path d="M530 282 c0 -23 40 -62 63 -62 24 0 21 13 -5 25 -13 6 -27 20 -33 33
-12 27 -25 29 -25 4z"/>
<path d="M422 216 c-11 -18 -10 -96 2 -104 18 -11 96 -10 104 2 11 18 10 96
-2 104 -18 11 -96 10 -104 -2z m95 -52 l0 -41 -41 0 -41 0 0 41 0 41 41 0 41
0 0 -41z"/>
<path d="M340 102 c0 -4 10 -12 23 -17 12 -6 26 -20 32 -33 12 -27 25 -29 25
-4 0 23 -40 62 -63 62 -9 0 -17 -3 -17 -8z"/>
<path d="M552 87 c-21 -23 -30 -57 -14 -57 4 0 12 10 17 23 6 12 20 26 33 32
27 12 29 25 4 25 -10 0 -28 -10 -40 -23z"/>
</g>
</svg>
