<?xml version="1.0" standalone="no"?>
<!DOCTYPE svg PUBLIC "-//W3C//DTD SVG 20010904//EN"
 "http://www.w3.org/TR/2001/REC-SVG-20010904/DTD/svg10.dtd">
<svg version="1.0" xmlns="http://www.w3.org/2000/svg"
 width="64.000000pt" height="64.000000pt" viewBox="0 0 64.000000 64.000000"
 preserveAspectRatio="xMidYMid meet">

<g transform="translate(0.000000,64.000000) scale(0.100000,-0.100000)"
fill="#000000" stroke="none">
<path d="M0 585 c0 -54 1 -55 29 -55 38 0 81 43 81 81 0 28 -1 29 -55 29 l-55
0 0 -55z"/>
<path d="M150 615 c0 -61 -63 -125 -122 -125 l-28 0 0 -75 0 -75 58 0 c49 1
59 4 75 26 15 20 17 35 11 81 l-7 56 56 -7 c46 -6 61 -4 81 11 22 16 25 26 26
76 l0 57 -75 0 c-74 0 -75 0 -75 -25z"/>
<path d="M340 583 c1 -50 4 -60 26 -76 20 -15 35 -17 81 -11 l56 7 -7 -56 c-6
-46 -4 -61 11 -81 16 -22 26 -25 76 -26 l57 0 0 75 c0 74 0 75 -25 75 -61 0
-125 63 -125 123 l0 27 -75 0 -75 0 0 -57z"/>
<path d="M530 611 c0 -17 10 -38 26 -55 17 -16 38 -26 55 -26 28 0 29 1 29 55
l0 55 -55 0 c-54 0 -55 -1 -55 -29z"/>
<path d="M280 465 c-7 -9 -13 -33 -13 -54 0 -38 0 -38 -39 -38 -23 0 -46 -7
-56 -17 -15 -15 -11 -16 56 -16 l72 0 0 70 c0 39 -2 70 -4 70 -2 0 -9 -7 -16
-15z"/>
<path d="M340 412 l0 -72 72 0 c67 0 71 1 56 16 -10 10 -33 17 -56 17 -39 0
-39 0 -39 39 0 23 -7 46 -17 56 -15 15 -16 11 -16 -56z"/>
<path d="M180 451 c0 -21 13 -41 26 -41 20 0 30 30 13 41 -18 11 -39 11 -39 0z"/>
<path d="M421 451 c-17 -11 -7 -41 13 -41 13 0 26 20 26 41 0 11 -21 11 -39 0z"/>
<path d="M0 225 l0 -75 28 0 c59 0 122 -64 122 -125 0 -25 1 -25 75 -25 l75 0
0 58 c-1 49 -4 59 -26 75 -20 15 -35 17 -81 11 l-56 -7 7 56 c6 46 4 61 -11
81 -16 22 -26 25 -75 26 l-58 0 0 -75z"/>
<path d="M172 284 c10 -10 33 -17 56 -17 39 0 39 0 39 -39 0 -23 7 -46 17 -56
15 -15 16 -11 16 56 l0 72 -72 0 c-67 0 -71 -1 -56 -16z"/>
<path d="M340 228 c0 -67 1 -71 16 -56 10 10 17 33 17 56 0 39 0 39 39 39 23
0 46 7 56 17 15 15 11 16 -56 16 l-72 0 0 -72z"/>
<path d="M507 274 c-15 -20 -17 -35 -11 -81 l7 -56 -56 7 c-46 6 -61 4 -81
-11 -22 -16 -25 -26 -26 -75 l0 -58 75 0 c74 0 75 0 75 25 0 61 63 125 123
125 l27 0 0 75 0 75 -57 0 c-50 -1 -60 -4 -76 -26z"/>
<path d="M185 210 c-9 -27 -2 -34 25 -25 12 4 20 13 18 23 -5 25 -35 26 -43 2z"/>
<path d="M413 214 c-6 -16 12 -34 35 -34 13 0 15 10 6 34 -8 21 -33 21 -41 0z"/>
<path d="M0 55 l0 -55 55 0 c54 0 55 1 55 29 0 39 -41 81 -80 81 -30 0 -30 0
-30 -55z"/>
<path d="M556 84 c-16 -17 -26 -38 -26 -55 0 -28 1 -29 55 -29 l55 0 0 55 c0
54 -1 55 -29 55 -17 0 -38 -10 -55 -26z"/>
</g>
</svg>
