<?xml version="1.0" standalone="no"?>
<!DOCTYPE svg PUBLIC "-//W3C//DTD SVG 20010904//EN"
 "http://www.w3.org/TR/2001/REC-SVG-20010904/DTD/svg10.dtd">
<svg version="1.0" xmlns="http://www.w3.org/2000/svg"
 width="64.000000pt" height="64.000000pt" viewBox="0 0 64.000000 64.000000"
 preserveAspectRatio="xMidYMid meet">

<g transform="translate(0.000000,64.000000) scale(0.100000,-0.100000)"
fill="#000000" stroke="none">
<path d="M0 320 l0 -320 320 0 320 0 0 320 0 320 -320 0 -320 0 0 -320z m90
283 c0 -10 -42 -53 -52 -53 -4 0 -8 14 -8 30 0 27 3 30 30 30 17 0 30 -3 30
-7z m137 -23 c7 -18 25 -36 47 -47 36 -17 36 -17 36 -80 0 -49 -3 -63 -15 -63
-8 0 -24 -13 -37 -30 -20 -27 -27 -30 -78 -30 -55 0 -57 1 -73 36 -11 22 -29
40 -47 47 -27 10 -30 15 -30 59 0 43 3 49 30 63 16 8 37 29 45 45 14 27 20 30
63 30 44 0 49 -3 59 -30z m83 0 c0 -34 -19 -40 -42 -12 -32 36 -31 42 6 42 33
0 36 -2 36 -30z m84 18 c-30 -54 -64 -63 -64 -18 0 28 3 30 36 30 25 0 33 -4
28 -12z m141 -18 c8 -16 29 -37 45 -45 27 -14 30 -20 30 -63 0 -44 -3 -49 -30
-59 -18 -7 -36 -25 -47 -47 -16 -35 -18 -36 -73 -36 -51 0 -58 3 -78 30 -13
17 -29 30 -37 30 -12 0 -15 14 -15 63 0 63 0 63 36 80 22 11 40 29 47 47 10
27 15 30 59 30 43 0 49 -3 63 -30z m75 0 c0 -36 -6 -37 -37 -8 -31 29 -29 38
7 38 27 0 30 -3 30 -30z m-537 -208 c27 -23 21 -42 -13 -42 -28 0 -30 3 -30
36 0 37 6 38 43 6z m537 -7 c0 -32 -2 -35 -30 -35 -38 0 -39 21 -4 49 15 12
28 21 30 21 2 0 4 -16 4 -35z m-256 -11 c31 -30 9 -84 -34 -84 -24 0 -50 26
-50 50 0 24 26 50 50 50 10 0 26 -7 34 -16z m-264 -57 c0 -13 -21 -36 -47 -51
-9 -5 -13 3 -13 28 0 33 2 36 30 36 18 0 30 -5 30 -13z m168 -17 c13 -16 29
-30 37 -30 12 0 15 -14 15 -63 0 -63 0 -63 -36 -80 -23 -11 -40 -29 -50 -52
-13 -32 -18 -35 -57 -35 -39 0 -45 3 -60 35 -9 19 -30 41 -47 50 -27 14 -30
20 -30 63 0 44 3 49 30 59 18 7 36 25 47 47 16 35 18 36 73 36 51 0 58 -3 78
-30z m275 -6 c11 -22 29 -40 47 -47 27 -10 30 -15 30 -59 0 -43 -3 -49 -30
-63 -17 -9 -38 -31 -47 -50 -15 -32 -21 -35 -60 -35 -39 0 -44 3 -57 35 -10
23 -27 41 -50 52 -36 17 -36 17 -36 80 0 49 3 63 15 63 8 0 24 14 37 30 20 27
27 30 78 30 55 0 57 -1 73 -36z m77 0 c0 -37 -6 -38 -42 -6 -28 23 -22 42 12
42 28 0 30 -3 30 -36z m-543 -206 c32 -30 29 -48 -7 -48 -28 0 -30 3 -30 35 0
41 5 43 37 13z m241 -10 c-3 -29 -7 -33 -35 -36 -38 -4 -41 5 -12 42 29 37 51
34 47 -6z m71 6 c29 -37 26 -46 -11 -42 -29 3 -33 7 -36 36 -4 40 18 43 47 6z
m231 -9 c0 -32 -2 -35 -30 -35 -35 0 -38 15 -8 47 30 32 38 29 38 -12z"/>
<path d="M126 525 c-24 -25 -28 -52 -11 -85 21 -41 74 -43 100 -4 40 61 -38
140 -89 89z m73 -33 c13 -24 -4 -52 -33 -52 -26 0 -40 23 -31 51 8 24 51 25
64 1z"/>
<path d="M436 524 c-44 -44 -20 -114 40 -114 57 0 80 72 38 115 -20 20 -58 19
-78 -1z m69 -33 c9 -28 -5 -51 -31 -51 -29 0 -46 28 -33 52 13 24 56 23 64 -1z"/>
<path d="M115 200 c-14 -26 -14 -37 -5 -61 22 -52 88 -51 110 2 19 45 -5 83
-54 87 -30 3 -37 -1 -51 -28z m84 -18 c13 -24 -4 -52 -33 -52 -26 0 -40 23
-31 51 8 24 51 25 64 1z"/>
<path d="M425 204 c-28 -43 1 -104 50 -104 48 0 75 52 50 100 -21 41 -74 43
-100 4z m80 -23 c9 -28 -5 -51 -31 -51 -29 0 -46 28 -33 52 13 24 56 23 64 -1z"/>
</g>
</svg>
