<?xml version="1.0" standalone="no"?>
<!DOCTYPE svg PUBLIC "-//W3C//DTD SVG 20010904//EN"
 "http://www.w3.org/TR/2001/REC-SVG-20010904/DTD/svg10.dtd">
<svg version="1.0" xmlns="http://www.w3.org/2000/svg"
 width="64.000000pt" height="64.000000pt" viewBox="0 0 64.000000 64.000000"
 preserveAspectRatio="xMidYMid meet">

<g transform="translate(0.000000,64.000000) scale(0.100000,-0.100000)"
fill="#000000" stroke="none">
<path d="M12 628 c-17 -17 -17 -599 0 -616 17 -17 599 -17 616 0 14 14 16 128
2 128 -5 0 -10 -26 -12 -57 l-3 -58 -295 0 -295 0 0 295 0 295 295 0 295 0 3
-222 c1 -137 6 -223 12 -223 15 0 13 443 -2 458 -17 17 -599 17 -616 0z"/>
<path d="M190 591 c-8 -16 -17 -19 -44 -14 -28 4 -39 1 -61 -22 -23 -22 -26
-33 -22 -61 5 -27 2 -36 -14 -45 -32 -17 -21 -51 20 -62 19 -5 45 -17 58 -27
58 -46 137 -28 168 37 19 39 11 93 -14 101 -10 3 -11 0 -1 -18 7 -12 9 -36 6
-53 -14 -71 -82 -96 -144 -54 -20 13 -49 28 -64 31 -33 7 -37 26 -8 33 18 5
20 11 15 47 -9 57 16 81 73 71 34 -5 40 -4 45 14 8 31 27 25 34 -9 3 -17 10
-33 16 -37 9 -6 2 62 -9 79 -10 15 -43 8 -54 -11z"/>
<path d="M282 598 c-15 -15 -15 -35 -2 -51 6 -7 17 -21 25 -32 l15 -20 15 20
c8 11 19 25 25 32 24 29 2 63 -40 63 -14 0 -31 -5 -38 -12z m63 -18 c3 -5 1
-10 -4 -10 -6 0 -11 -9 -11 -20 0 -11 -4 -20 -10 -20 -5 0 -10 9 -10 20 0 11
-5 20 -11 20 -5 0 -7 5 -4 10 3 6 15 10 25 10 10 0 22 -4 25 -10z"/>
<path d="M397 603 c-2 -5 -7 -21 -11 -37 -4 -16 -16 -40 -26 -53 -29 -37 -34
-77 -15 -117 31 -64 110 -81 168 -36 13 10 39 22 58 27 41 11 52 45 20 62 -16
9 -19 18 -14 45 4 28 1 39 -22 61 -22 23 -33 26 -61 22 -27 -5 -36 -2 -44 14
-10 19 -45 26 -53 12z m40 -34 c5 -18 11 -19 45 -14 57 10 82 -14 73 -71 -5
-36 -3 -42 15 -47 29 -7 25 -26 -7 -33 -16 -3 -45 -18 -65 -31 -92 -62 -187
32 -125 125 13 20 28 49 31 65 8 32 26 36 33 6z"/>
<path d="M387 494 c-11 -11 -8 -94 3 -94 16 0 42 48 38 72 -3 22 -27 35 -41
22z m20 -46 c-3 -7 -5 -2 -5 12 0 14 2 19 5 13 2 -7 2 -19 0 -25z"/>
<path d="M423 415 c-36 -25 -27 -36 25 -33 39 3 47 6 47 23 0 26 -42 32 -72
10z m50 -12 c-7 -2 -19 -2 -25 0 -7 3 -2 5 12 5 14 0 19 -2 13 -5z"/>
<path d="M217 494 c-19 -19 8 -94 34 -94 17 0 6 94 -11 98 -9 1 -19 0 -23 -4z
m20 -46 c-3 -7 -5 -2 -5 12 0 14 2 19 5 13 2 -7 2 -19 0 -25z"/>
<path d="M144 415 c-10 -24 6 -35 52 -35 49 0 56 11 22 34 -28 20 -67 21 -74
1z m49 -12 c-7 -2 -19 -2 -25 0 -7 3 -2 5 12 5 14 0 19 -2 13 -5z"/>
<path d="M301 376 c-7 -13 -24 -30 -37 -37 -30 -16 -30 -22 0 -38 13 -7 30
-24 37 -37 16 -30 22 -30 38 0 7 13 24 30 37 37 13 7 24 15 24 19 0 4 -11 12
-24 19 -13 7 -30 24 -37 37 -7 13 -15 24 -19 24 -4 0 -12 -11 -19 -24z m44
-36 c18 -20 18 -21 -3 -43 l-22 -21 -22 21 c-21 22 -21 23 -3 43 10 11 21 20
25 20 4 0 15 -9 25 -20z"/>
<path d="M42 358 c-7 -7 -12 -24 -12 -38 0 -42 34 -64 63 -40 7 6 21 17 32 25
l20 15 -20 15 c-11 8 -25 19 -32 25 -16 13 -36 13 -51 -2z m49 -28 c10 0 19
-4 19 -10 0 -5 -9 -10 -19 -10 -11 0 -21 -6 -24 -12 -3 -9 -7 -7 -12 5 -4 9
-4 25 0 35 5 11 9 13 12 5 3 -7 13 -13 24 -13z"/>
<path d="M545 359 c-5 -5 -19 -16 -30 -24 l-20 -15 20 -15 c11 -8 25 -19 32
-25 29 -24 63 -2 63 40 0 42 -39 65 -65 39z m45 -39 c0 -10 -4 -22 -10 -25 -5
-3 -10 -1 -10 4 0 6 -9 11 -20 11 -11 0 -20 5 -20 10 0 6 9 10 20 10 11 0 20
5 20 11 0 5 5 7 10 4 6 -3 10 -15 10 -25z"/>
<path d="M160 299 c-13 -6 -31 -16 -40 -24 -8 -7 -31 -17 -50 -22 -40 -11 -52
-40 -24 -60 13 -9 19 -26 19 -50 0 -55 20 -50 22 6 1 41 -2 50 -18 54 -28 7
-23 26 8 33 16 3 45 18 65 31 93 62 187 -33 125 -125 -13 -20 -28 -49 -31 -64
-7 -32 -26 -37 -33 -9 -4 16 -13 19 -54 18 -56 -2 -61 -22 -6 -22 24 0 41 -6
50 -19 20 -28 49 -16 60 23 5 19 17 45 27 58 45 57 28 137 -35 167 -38 18 -50
19 -85 5z"/>
<path d="M393 294 c-61 -31 -77 -111 -33 -167 10 -13 22 -39 27 -58 11 -41 45
-52 62 -20 9 16 18 19 45 14 28 -4 39 -1 61 22 23 22 26 33 22 61 -5 27 -2 36
14 45 32 17 21 51 -20 62 -18 4 -45 17 -60 27 -37 28 -81 33 -118 14z m101
-25 c14 -11 42 -25 61 -30 39 -11 46 -28 14 -36 -18 -5 -19 -11 -14 -45 10
-57 -14 -82 -71 -73 -36 5 -42 3 -47 -15 -7 -29 -26 -25 -33 8 -3 15 -18 44
-31 64 -20 29 -24 45 -19 71 13 69 86 98 140 56z"/>
<path d="M400 251 c0 -17 47 -43 72 -39 15 2 23 10 23 23 0 17 -8 20 -47 23
-28 2 -48 -1 -48 -7z m73 -18 c-7 -2 -19 -2 -25 0 -7 3 -2 5 12 5 14 0 19 -2
13 -5z"/>
<path d="M382 193 c3 -40 6 -48 23 -48 26 0 32 38 11 71 -25 38 -37 29 -34
-23z m25 -25 c-3 -7 -5 -2 -5 12 0 14 2 19 5 13 2 -7 2 -19 0 -25z"/>
<path d="M144 245 c-14 -35 33 -48 74 -19 34 23 27 34 -23 34 -31 0 -47 -5
-51 -15z m49 -12 c-7 -2 -19 -2 -25 0 -7 3 -2 5 12 5 14 0 19 -2 13 -5z"/>
<path d="M224 216 c-21 -33 -15 -71 11 -71 17 0 20 8 23 48 3 52 -9 61 -34 23z
m13 -48 c-3 -7 -5 -2 -5 12 0 14 2 19 5 13 2 -7 2 -19 0 -25z"/>
<path d="M298 115 c-6 -14 -15 -25 -20 -25 -12 0 -10 -34 4 -48 15 -15 61 -15
76 0 14 14 16 48 4 48 -5 0 -14 11 -20 25 -6 14 -16 25 -22 25 -6 0 -16 -11
-22 -25z m32 -24 c0 -11 6 -21 13 -24 8 -3 6 -7 -5 -12 -10 -4 -26 -4 -35 0
-12 5 -14 9 -5 12 6 3 12 13 12 24 0 10 5 19 10 19 6 0 10 -9 10 -19z"/>
</g>
</svg>
