<?xml version="1.0" standalone="no"?>
<!DOCTYPE svg PUBLIC "-//W3C//DTD SVG 20010904//EN"
 "http://www.w3.org/TR/2001/REC-SVG-20010904/DTD/svg10.dtd">
<svg version="1.0" xmlns="http://www.w3.org/2000/svg"
 width="64.000000pt" height="64.000000pt" viewBox="0 0 64.000000 64.000000"
 preserveAspectRatio="xMidYMid meet">

<g transform="translate(0.000000,64.000000) scale(0.100000,-0.100000)"
fill="#000000" stroke="none">
<path d="M10 320 l0 -310 310 0 310 0 0 310 0 310 -310 0 -310 0 0 -310z m80
260 c0 -27 -3 -30 -30 -30 -27 0 -30 3 -30 30 0 27 3 30 30 30 27 0 30 -3 30
-30z m150 10 c-11 -11 -20 -24 -20 -30 0 -5 -25 -10 -55 -10 -54 0 -55 0 -55
30 l0 30 75 0 75 0 -20 -20z m144 -6 c14 -15 26 -33 26 -40 0 -10 16 -14 60
-14 l60 0 0 -60 c0 -44 4 -60 14 -60 28 0 66 -51 66 -90 0 -39 -38 -90 -66
-90 -10 0 -14 -16 -14 -60 l0 -60 -60 0 c-44 0 -60 -4 -60 -14 0 -28 -51 -66
-90 -66 -39 0 -90 38 -90 66 0 10 -16 14 -60 14 l-60 0 0 60 c0 44 -4 60 -14
60 -28 0 -66 51 -66 90 0 39 38 90 66 90 10 0 14 16 14 60 l0 60 60 0 c44 0
60 4 60 14 0 28 51 66 90 66 27 0 45 -7 64 -26z m146 -4 c0 -30 -1 -30 -55
-30 -30 0 -55 5 -55 10 0 6 -9 19 -20 30 l-20 20 75 0 75 0 0 -30z m80 0 c0
-27 -3 -30 -30 -30 -27 0 -30 3 -30 30 0 27 3 30 30 30 27 0 30 -3 30 -30z
m-520 -105 c0 -30 -4 -55 -10 -55 -5 0 -19 -9 -30 -20 l-20 -20 0 75 0 75 30
0 c30 0 30 -1 30 -55z m520 -20 l0 -75 -20 20 c-11 11 -24 20 -30 20 -5 0 -10
25 -10 55 0 54 0 55 30 55 l30 0 0 -75z m-530 -235 c6 0 10 -25 10 -55 0 -54
0 -55 -30 -55 l-30 0 0 75 0 75 20 -20 c11 -11 25 -20 30 -20z m530 -35 l0
-75 -30 0 c-30 0 -30 1 -30 53 0 48 3 55 25 65 14 6 25 16 25 22 0 5 2 10 5
10 3 0 5 -34 5 -75z m-520 -125 c0 -27 -3 -30 -30 -30 -27 0 -30 3 -30 30 0
27 3 30 30 30 27 0 30 -3 30 -30z m130 20 c0 -5 9 -19 20 -30 l20 -20 -75 0
-75 0 0 30 c0 30 1 30 55 30 30 0 55 -4 55 -10z m310 -20 l0 -30 -75 0 -75 0
20 20 c11 11 20 25 20 30 0 6 25 10 55 10 54 0 55 0 55 -30z m80 0 c0 -27 -3
-30 -30 -30 -27 0 -30 3 -30 30 0 27 3 30 30 30 27 0 30 -3 30 -30z"/>
<path d="M275 565 c-14 -13 -25 -31 -25 -40 0 -12 -13 -15 -60 -15 l-60 0 0
-58 c0 -55 -1 -58 -30 -69 -62 -23 -62 -103 0 -126 29 -11 30 -14 30 -69 l0
-58 58 0 c55 0 58 -1 69 -30 23 -62 103 -62 126 0 11 29 14 30 69 30 l58 0 0
58 c0 55 1 58 30 69 62 23 62 103 0 126 -29 11 -30 14 -30 69 l0 58 -60 0
c-47 0 -60 3 -60 15 0 23 -46 65 -70 65 -11 0 -32 -11 -45 -25z m83 -7 c7 -7
12 -25 12 -40 0 -28 1 -28 60 -28 l60 0 0 -60 c0 -59 0 -60 28 -60 35 0 52
-16 52 -50 0 -34 -17 -50 -52 -50 -28 0 -28 -1 -28 -60 l0 -60 -60 0 c-59 0
-60 0 -60 -28 0 -35 -16 -52 -50 -52 -34 0 -50 17 -50 52 0 28 -1 28 -60 28
l-60 0 0 60 c0 59 0 60 -28 60 -35 0 -52 16 -52 50 0 34 17 50 52 50 28 0 28
1 28 60 l0 60 60 0 c59 0 60 0 60 28 0 35 16 52 50 52 14 0 31 -5 38 -12z"/>
<path d="M285 480 c-21 -22 -38 -30 -62 -30 -30 0 -33 -2 -33 -32 0 -22 -10
-42 -32 -65 l-32 -33 32 -33 c22 -23 32 -43 32 -65 0 -29 3 -32 32 -32 22 0
42 -10 65 -32 l33 -32 33 32 c23 22 43 32 65 32 29 0 32 3 32 32 0 22 10 42
32 65 l32 33 -32 33 c-22 23 -32 43 -32 65 0 30 -3 32 -33 32 -24 0 -41 8 -62
30 -16 17 -32 30 -35 30 -3 0 -19 -13 -35 -30z m60 -20 c12 -13 31 -20 57 -20
37 0 38 -1 38 -37 0 -24 8 -45 22 -60 l21 -23 -21 -23 c-14 -15 -22 -36 -22
-60 0 -36 -1 -37 -37 -37 -24 0 -45 -8 -60 -22 l-23 -21 -23 21 c-15 14 -36
22 -60 22 -36 0 -37 1 -37 37 0 24 -8 45 -22 60 l-21 23 21 23 c14 15 22 36
22 60 0 36 1 37 38 37 26 0 45 7 57 20 10 11 21 20 25 20 4 0 15 -9 25 -20z"/>
<path d="M296 419 c-10 -17 -16 -39 -13 -48 3 -14 0 -17 -14 -14 -17 5 -79
-25 -79 -37 0 -12 62 -42 79 -37 14 3 17 0 14 -14 -5 -17 25 -79 37 -79 12 0
42 62 37 79 -3 14 0 17 14 14 17 -5 79 25 79 37 0 12 -62 42 -79 37 -14 -3
-17 0 -14 14 5 17 -25 79 -37 79 -3 0 -14 -14 -24 -31z m39 -40 c0 -24 -5 -34
-15 -34 -16 0 -25 37 -16 62 10 26 31 8 31 -28z m-40 -59 c0 -18 -52 -27 -67
-12 -17 17 2 33 35 30 20 -2 32 -8 32 -18z m120 0 c0 -18 -52 -27 -67 -12 -17
17 2 33 35 30 20 -2 32 -8 32 -18z m-80 -61 c0 -24 -5 -34 -15 -34 -16 0 -25
37 -16 62 10 26 31 8 31 -28z"/>
</g>
</svg>
