<?xml version="1.0" standalone="no"?>
<!DOCTYPE svg PUBLIC "-//W3C//DTD SVG 20010904//EN"
 "http://www.w3.org/TR/2001/REC-SVG-20010904/DTD/svg10.dtd">
<svg version="1.0" xmlns="http://www.w3.org/2000/svg"
 width="64.000000pt" height="64.000000pt" viewBox="0 0 64.000000 64.000000"
 preserveAspectRatio="xMidYMid meet">

<g transform="translate(0.000000,64.000000) scale(0.100000,-0.100000)"
fill="#000000" stroke="none">
<path d="M7 633 c-4 -3 -7 -142 -7 -308 0 -221 3 -304 12 -313 19 -19 601 -17
617 2 8 9 11 101 9 317 l-3 304 -311 3 c-171 1 -313 -1 -317 -5z m613 -313 l0
-300 -300 0 -300 0 0 300 0 300 300 0 300 0 0 -300z"/>
<path d="M46 581 c-12 -19 7 -41 35 -41 30 0 38 17 17 38 -14 14 -44 16 -52 3z"/>
<path d="M207 583 c-13 -12 -7 -60 8 -73 8 -7 22 -10 30 -6 27 10 29 36 5 62
-25 25 -32 28 -43 17z m37 -54 c-10 -16 -24 -9 -24 12 0 18 2 19 15 9 8 -7 12
-16 9 -21z"/>
<path d="M402 574 c-30 -21 -27 -68 5 -72 27 -4 43 23 36 61 -6 31 -11 33 -41
11z m20 -46 c-6 -6 -15 -9 -18 -5 -4 3 -4 14 0 23 5 13 9 15 18 6 9 -9 9 -15
0 -24z"/>
<path d="M542 578 c-21 -21 -13 -38 17 -38 28 0 47 22 35 41 -8 13 -38 11 -52
-3z"/>
<path d="M285 506 c-26 -34 -28 -35 -77 -29 l-51 6 7 -50 c6 -49 5 -51 -29
-77 -19 -15 -35 -31 -35 -36 0 -6 16 -20 35 -32 35 -23 35 -24 29 -76 l-7 -54
54 7 c54 6 54 6 77 -29 12 -20 27 -36 32 -36 5 0 20 16 32 36 23 35 23 35 77
29 l54 -7 -7 54 c-6 52 -6 53 29 76 19 12 35 26 35 32 0 5 -16 21 -35 36 -34
26 -35 28 -29 77 l7 50 -51 -6 c-49 -6 -51 -5 -77 29 -14 19 -30 34 -35 34 -5
0 -21 -15 -35 -34z m65 -28 c11 -18 19 -46 18 -62 -3 -28 -6 -29 -48 -29 -42
0 -45 1 -48 29 -3 30 30 94 48 94 6 0 19 -15 30 -32z m-116 -24 c9 -4 16 -18
16 -33 0 -24 -4 -28 -29 -28 -29 0 -40 16 -41 55 0 13 28 16 54 6z m226 -6
c-1 -39 -12 -55 -41 -55 -25 0 -29 4 -29 28 0 15 6 30 13 32 24 10 57 7 57 -5z
m-221 -77 c8 -5 14 -27 15 -52 1 -41 -1 -44 -27 -47 -27 -3 -97 31 -97 48 0
13 65 56 90 59 3 0 11 -3 19 -8z m244 -23 c15 -11 27 -23 27 -28 0 -17 -70
-51 -97 -48 -26 3 -28 6 -27 47 2 65 32 74 97 29z m-129 6 c9 -8 16 -23 16
-31 0 -21 -29 -53 -48 -53 -22 0 -52 30 -52 51 0 23 26 49 50 49 10 0 26 -7
34 -16z m14 -127 c3 -27 -31 -97 -48 -97 -14 0 -50 66 -50 92 0 33 2 34 52 33
39 -1 43 -3 46 -28z m-118 -6 c0 -24 -5 -29 -32 -35 -39 -8 -42 -5 -33 33 5
26 11 31 36 31 25 0 29 -4 29 -29z m205 -2 c9 -38 6 -41 -33 -33 -27 6 -32 11
-32 35 0 25 4 29 29 29 25 0 31 -5 36 -31z"/>
<path d="M68 443 c-22 -6 -22 -12 -2 -41 29 -42 94 -17 67 27 -11 17 -36 22
-65 14z m47 -24 c10 -15 -1 -23 -20 -15 -9 3 -13 10 -10 16 8 13 22 13 30 -1z"/>
<path d="M506 424 c-10 -25 -7 -33 14 -44 17 -9 25 -6 45 14 35 35 31 46 -14
46 -26 0 -41 -5 -45 -16z m44 -19 c-12 -15 -30 -12 -30 6 0 5 10 9 21 9 18 0
19 -2 9 -15z"/>
<path d="M71 246 c-27 -29 -21 -46 18 -46 36 0 59 25 44 48 -16 26 -37 25 -62
-2z m44 -6 c3 -6 -1 -13 -10 -16 -19 -8 -30 0 -20 15 8 14 22 14 30 1z"/>
<path d="M504 245 c-11 -28 4 -45 40 -45 42 0 50 10 30 38 -17 25 -62 29 -70
7z m51 -15 c3 -5 -3 -10 -14 -10 -12 0 -21 5 -21 10 0 6 6 10 14 10 8 0 18 -4
21 -10z"/>
<path d="M201 121 c-8 -13 -8 -28 -1 -46 9 -25 10 -25 35 -9 19 12 25 24 23
43 -4 33 -42 41 -57 12z m39 -15 c0 -8 -4 -17 -9 -21 -12 -7 -24 12 -16 25 9
15 25 12 25 -4z"/>
<path d="M382 128 c-19 -19 -15 -35 15 -58 32 -25 46 -15 41 31 -3 37 -32 51
-56 27z m38 -29 c0 -18 -2 -19 -15 -9 -15 12 -12 30 6 30 5 0 9 -10 9 -21z"/>
<path d="M46 94 c-6 -16 9 -44 25 -44 13 0 39 30 39 46 0 20 -56 18 -64 -2z
m44 -8 c0 -11 -19 -15 -25 -6 -3 5 1 10 9 10 9 0 16 -2 16 -4z"/>
<path d="M530 96 c0 -16 26 -46 39 -46 16 0 31 28 25 44 -8 20 -64 22 -64 2z
m50 -10 c0 -11 -19 -15 -25 -6 -3 5 1 10 9 10 9 0 16 -2 16 -4z"/>
</g>
</svg>
