<?xml version="1.0" standalone="no"?>
<!DOCTYPE svg PUBLIC "-//W3C//DTD SVG 20010904//EN"
 "http://www.w3.org/TR/2001/REC-SVG-20010904/DTD/svg10.dtd">
<svg version="1.0" xmlns="http://www.w3.org/2000/svg"
 width="64.000000pt" height="64.000000pt" viewBox="0 0 64.000000 64.000000"
 preserveAspectRatio="xMidYMid meet">

<g transform="translate(0.000000,64.000000) scale(0.100000,-0.100000)"
fill="#000000" stroke="none">
<path d="M5 628 c-3 -7 -4 -150 -3 -318 l3 -305 315 0 315 0 0 315 0 315 -313
3 c-246 2 -314 0 -317 -10z m123 -60 l-3 -53 -52 -3 -53 -3 0 55 0 56 56 0 55
0 -3 -52z m362 37 c0 -9 -9 -15 -24 -15 -14 0 -28 -4 -31 -10 -4 -6 7 -10 24
-10 26 0 31 -4 31 -24 0 -31 25 -56 56 -56 l24 0 0 -170 0 -170 -24 0 c-31 0
-56 -25 -56 -56 l0 -24 -126 0 c-81 0 -123 -4 -119 -10 4 -6 57 -10 126 -10
99 0 119 -3 119 -15 0 -13 -26 -15 -170 -15 -144 0 -170 2 -170 15 0 9 9 15
24 15 14 0 28 5 31 10 4 6 -7 10 -24 10 -26 0 -31 4 -31 24 0 31 -25 56 -56
56 l-24 0 0 170 0 170 24 0 c31 0 56 25 56 56 l0 24 131 0 c84 0 128 4 124 10
-4 6 -58 10 -131 10 -104 0 -124 2 -124 15 0 13 26 15 170 15 144 0 170 -2
170 -15z m130 -41 l0 -55 -52 3 -53 3 -3 53 -3 52 55 0 56 0 0 -56z m-570
-244 c0 -144 -2 -170 -15 -170 -13 0 -15 26 -15 170 0 144 2 170 15 170 13 0
15 -26 15 -170z m570 0 c0 -144 -2 -170 -15 -170 -13 0 -15 26 -15 170 0 144
2 170 15 170 13 0 15 -26 15 -170z m-492 -247 l3 -53 -55 0 -56 0 0 56 0 55
53 -3 52 -3 3 -52z m492 2 l0 -55 -55 0 -55 0 0 48 c0 27 3 52 7 55 3 4 28 7
55 7 l48 0 0 -55z"/>
<path d="M35 589 c-4 -5 -4 -21 -1 -35 5 -20 13 -24 41 -24 33 0 35 2 35 35 0
33 -2 35 -34 35 -19 0 -38 -5 -41 -11z m55 -19 c0 -13 -7 -20 -20 -20 -19 0
-27 20 -13 33 13 14 33 6 33 -13z"/>
<path d="M220 489 c0 -52 -3 -62 -20 -66 -27 -7 -25 -23 3 -23 13 0 38 -15 57
-35 l34 -35 -50 0 c-44 0 -54 4 -82 33 -25 26 -29 36 -20 45 9 9 5 12 -20 12
-18 0 -32 -3 -32 -7 0 -4 19 -27 42 -50 l42 -43 -42 -43 c-23 -23 -42 -46 -42
-49 0 -4 28 -8 63 -10 l62 -3 3 -62 c2 -35 6 -63 10 -63 3 0 26 19 49 42 l43
42 43 -42 c23 -23 46 -42 49 -42 4 0 8 28 10 63 l3 62 63 3 c34 2 62 6 62 10
0 3 -19 26 -42 49 l-42 43 42 43 c23 23 42 46 42 49 0 4 -28 8 -62 10 l-63 3
-3 63 c-2 34 -6 62 -10 62 -3 0 -26 -19 -49 -42 l-43 -42 -43 42 c-23 23 -46
42 -50 42 -4 0 -7 -27 -7 -61z m90 -93 l0 -50 -35 34 c-31 30 -35 40 -35 84
l0 50 35 -34 c31 -30 35 -40 35 -84z m56 -15 l-36 -36 0 50 c0 42 5 54 33 83
l32 33 3 -47 c3 -43 0 -51 -32 -83z m114 -16 c-30 -31 -40 -35 -84 -35 l-50 0
34 35 c30 31 40 35 84 35 l50 0 -34 -35z m-225 -95 c-34 -34 -45 -40 -82 -40
-24 0 -43 3 -43 7 0 4 14 22 32 40 28 29 38 33 82 33 l50 0 -39 -40z m222 8
c18 -18 33 -36 33 -40 0 -4 -19 -8 -43 -8 -37 0 -48 6 -82 40 l-39 40 49 0
c42 0 54 -5 82 -32z m-201 -117 l-36 -36 0 50 c0 42 5 54 33 83 l32 33 3 -47
c3 -43 0 -51 -32 -83z m124 15 l0 -50 -35 34 c-31 30 -35 40 -35 84 l0 50 35
-34 c31 -30 35 -40 35 -84z"/>
<path d="M530 565 c0 -33 2 -35 35 -35 28 0 36 4 41 24 8 35 -2 46 -42 46 -32
0 -34 -2 -34 -35z m58 2 c2 -12 -3 -17 -17 -17 -15 0 -21 6 -21 21 0 25 33 22
38 -4z"/>
<path d="M34 85 c-8 -33 12 -57 45 -53 22 3 26 9 29 41 3 36 3 37 -32 37 -30
0 -37 -4 -42 -25z m56 -16 c0 -25 -33 -22 -38 4 -2 12 3 17 17 17 15 0 21 -6
21 -21z"/>
<path d="M532 73 c3 -32 7 -38 29 -41 33 -4 53 20 45 53 -5 21 -12 25 -42 25
-35 0 -35 -1 -32 -37z m56 0 c-5 -26 -38 -29 -38 -4 0 15 6 21 21 21 14 0 19
-5 17 -17z"/>
</g>
</svg>
