<?xml version="1.0" standalone="no"?>
<!DOCTYPE svg PUBLIC "-//W3C//DTD SVG 20010904//EN"
 "http://www.w3.org/TR/2001/REC-SVG-20010904/DTD/svg10.dtd">
<svg version="1.0" xmlns="http://www.w3.org/2000/svg"
 width="64.000000pt" height="64.000000pt" viewBox="0 0 64.000000 64.000000"
 preserveAspectRatio="xMidYMid meet">

<g transform="translate(0.000000,64.000000) scale(0.100000,-0.100000)"
fill="#000000" stroke="none">
<path d="M0 632 c0 -5 6 -16 13 -26 12 -16 14 -16 26 -3 10 13 9 17 -8 26 -24
13 -31 14 -31 3z"/>
<path d="M80 612 c0 -36 -16 -52 -52 -52 -37 0 -37 -24 2 -57 41 -34 41 -82 0
-116 -24 -21 -30 -33 -30 -67 0 -34 6 -46 30 -67 23 -18 30 -33 30 -59 0 -33
-28 -74 -50 -74 -6 0 -10 -9 -10 -20 0 -15 7 -20 29 -20 34 0 54 -20 54 -55 0
-34 22 -32 54 5 18 23 33 30 59 30 33 0 74 -28 74 -50 0 -5 21 -10 46 -10 38
0 49 5 71 30 18 23 33 30 59 30 33 0 74 -28 74 -50 0 -5 9 -10 20 -10 14 0 20
7 20 21 0 37 19 59 50 59 39 0 39 23 0 57 -23 18 -30 33 -30 59 0 33 28 74 50
74 6 0 10 21 10 46 0 38 -5 49 -30 71 -22 18 -30 34 -30 57 0 36 24 76 46 76
8 0 14 9 14 20 0 15 -7 20 -28 20 -36 0 -52 16 -52 52 0 21 -5 28 -20 28 -11
0 -20 -4 -20 -10 0 -23 -41 -50 -75 -50 -34 0 -75 27 -75 50 0 6 -22 10 -50
10 -27 0 -50 -4 -50 -10 0 -21 -45 -50 -77 -50 -32 0 -73 28 -73 50 0 6 -9 10
-20 10 -15 0 -20 -7 -20 -28z m270 -31 c14 -28 28 -41 49 -46 26 -5 71 -41 60
-48 -2 -1 -22 -11 -44 -22 -34 -17 -70 -56 -89 -98 -5 -9 -7 -9 -12 0 -19 41
-55 81 -92 102 -41 22 -42 24 -27 42 10 10 30 21 46 24 21 5 35 18 49 46 11
21 25 39 30 39 5 0 19 -18 30 -39z m-213 -47 c9 -23 -11 -38 -26 -20 -13 16
-7 36 10 36 5 0 12 -7 16 -16z m409 -5 c9 -16 -12 -33 -31 -25 -14 5 -15 9 -5
21 15 18 26 19 36 4z m-371 -112 c17 -36 54 -71 98 -91 9 -5 9 -7 0 -12 -41
-19 -81 -55 -102 -92 -22 -41 -24 -42 -42 -27 -10 10 -21 30 -24 46 -5 21 -18
35 -46 49 -21 11 -39 25 -39 30 0 5 17 19 39 29 26 14 41 29 46 48 6 27 32 63
44 63 3 -1 15 -20 26 -43z m360 -18 c5 -21 18 -35 46 -49 21 -11 39 -25 39
-30 0 -5 -18 -19 -39 -30 -28 -14 -41 -28 -46 -49 -5 -26 -41 -71 -48 -60 -1
2 -11 22 -22 44 -17 34 -56 70 -98 89 -9 5 -9 7 0 12 41 19 81 55 102 92 22
41 24 42 42 27 10 -10 21 -30 24 -46z m-200 -138 c10 -34 46 -71 87 -92 38
-19 39 -21 23 -39 -9 -10 -30 -22 -46 -25 -21 -5 -35 -18 -49 -46 -11 -21 -25
-39 -30 -39 -5 0 -19 17 -29 39 -14 26 -29 41 -48 46 -28 7 -63 32 -63 45 0 5
11 11 24 14 35 9 81 50 96 86 14 35 26 38 35 11z m-201 -130 c9 -15 -23 -36
-36 -23 -5 5 -7 15 -4 21 9 13 33 14 40 2z m398 -33 c-16 -16 -37 4 -28 28 6
16 8 16 23 1 13 -13 15 -20 5 -29z"/>
<path d="M302 525 c-7 -15 -20 -25 -32 -25 -18 0 -16 -5 15 -31 l35 -31 35 31
c31 26 33 31 15 31 -12 0 -25 10 -32 25 -6 14 -14 25 -18 25 -4 0 -12 -11 -18
-25z"/>
<path d="M140 372 c0 -11 -10 -27 -22 -36 l-23 -16 23 -16 c12 -9 22 -25 22
-36 0 -15 6 -12 31 17 l31 35 -31 35 c-25 29 -31 32 -31 17z"/>
<path d="M466 353 l-28 -33 31 -35 c26 -31 31 -33 31 -15 0 12 10 25 25 32 31
14 31 22 1 36 -14 6 -26 19 -28 29 -2 16 -7 14 -32 -14z"/>
<path d="M282 170 c-28 -26 -30 -30 -12 -30 12 0 25 -10 32 -25 6 -14 14 -25
18 -25 4 0 12 11 18 25 7 15 20 25 32 25 18 0 16 4 -13 30 -19 17 -36 30 -38
30 -2 0 -19 -14 -37 -30z"/>
<path d="M165 630 c3 -5 17 -10 30 -10 13 0 27 5 30 10 4 6 -8 10 -30 10 -22
0 -34 -4 -30 -10z"/>
<path d="M415 630 c3 -5 17 -10 30 -10 13 0 27 5 30 10 4 6 -8 10 -30 10 -22
0 -34 -4 -30 -10z"/>
<path d="M606 627 c-16 -12 -16 -15 -3 -26 15 -12 19 -10 30 22 8 20 -2 22
-27 4z"/>
<path d="M0 445 c0 -22 4 -34 10 -30 13 8 13 52 0 60 -6 4 -10 -8 -10 -30z"/>
<path d="M621 461 c-7 -13 -6 -24 4 -37 13 -18 14 -16 15 19 0 41 -5 46 -19
18z"/>
<path d="M0 195 c0 -22 4 -34 10 -30 13 8 13 52 0 60 -6 4 -10 -8 -10 -30z"/>
<path d="M627 223 c-11 -10 -8 -51 3 -58 6 -4 10 8 10 29 0 37 -2 41 -13 29z"/>
<path d="M17 44 c-4 -4 -7 -16 -7 -26 0 -16 3 -17 21 -8 11 6 19 16 16 23 -4
14 -21 20 -30 11z"/>
<path d="M607 43 c-14 -13 -7 -31 14 -36 15 -4 19 -2 15 10 -3 8 -6 19 -6 24
0 11 -14 12 -23 2z"/>
<path d="M165 10 c-4 -6 8 -10 30 -10 22 0 34 4 30 10 -8 13 -52 13 -60 0z"/>
<path d="M415 10 c-4 -6 8 -10 30 -10 22 0 34 4 30 10 -8 13 -52 13 -60 0z"/>
</g>
</svg>
