<?xml version="1.0" standalone="no"?>
<!DOCTYPE svg PUBLIC "-//W3C//DTD SVG 20010904//EN"
 "http://www.w3.org/TR/2001/REC-SVG-20010904/DTD/svg10.dtd">
<svg version="1.0" xmlns="http://www.w3.org/2000/svg"
 width="64.000000pt" height="64.000000pt" viewBox="0 0 64.000000 64.000000"
 preserveAspectRatio="xMidYMid meet">

<g transform="translate(0.000000,64.000000) scale(0.100000,-0.100000)"
fill="#000000" stroke="none">
<path d="M20 620 c-19 -19 -20 -33 -20 -300 0 -267 1 -281 20 -300 19 -19 33
-20 300 -20 267 0 281 1 300 20 19 19 20 33 20 300 0 267 -1 281 -20 300 -19
19 -33 20 -300 20 -267 0 -281 -1 -300 -20z m263 -17 c-11 -31 -33 -50 -64
-57 -20 -4 -29 -11 -29 -25 0 -11 5 -23 10 -26 6 -3 10 0 10 8 0 7 15 20 33
28 19 8 40 29 52 51 11 21 22 38 25 38 3 0 14 -17 25 -38 12 -22 33 -43 53
-51 17 -8 32 -21 32 -28 0 -8 5 -11 10 -8 6 3 10 15 10 26 0 14 -9 21 -29 25
-31 7 -53 26 -64 57 -6 16 3 17 108 17 l113 0 -29 -29 c-35 -35 -39 -71 -8
-71 11 0 34 13 50 29 l29 29 0 -261 c-1 -183 -4 -257 -11 -244 -5 9 -23 24
-40 32 -53 28 -66 -3 -23 -54 l26 -31 -111 0 c-101 0 -110 2 -104 17 11 31 33
50 64 57 20 4 29 11 29 25 0 11 -4 23 -10 26 -5 3 -10 -1 -10 -9 0 -9 -11 -18
-24 -22 -28 -7 -61 -40 -71 -71 -9 -32 -17 -29 -40 15 -12 22 -33 43 -52 51
-18 8 -33 21 -33 28 0 8 -4 11 -10 8 -5 -3 -10 -15 -10 -26 0 -14 9 -21 29
-25 31 -7 53 -26 64 -56 6 -16 -3 -18 -104 -18 l-111 0 27 31 c48 58 9 94 -45
41 l-30 -30 0 258 0 258 30 -30 c32 -31 63 -34 68 -5 2 9 -10 31 -26 47 l-30
30 113 0 c105 0 114 -1 108 -17z m-203 -28 c7 -9 10 -18 7 -22 -8 -7 -37 15
-37 28 0 14 16 11 30 -6z m508 3 c-2 -6 -15 -18 -28 -27 -21 -14 -23 -14 -16
-1 16 27 28 40 38 40 5 0 8 -5 6 -12z m-498 -496 c0 -12 -39 -46 -45 -41 -6 7
24 49 36 49 5 0 9 -4 9 -8z m494 -14 c23 -33 9 -36 -22 -5 -21 21 -23 27 -10
27 9 0 24 -10 32 -22z"/>
<path d="M302 498 c-13 -13 -16 -66 -6 -92 8 -21 40 -21 48 0 15 40 1 104 -24
104 -3 0 -11 -5 -18 -12z m28 -48 c0 -16 -4 -30 -10 -30 -5 0 -10 14 -10 30 0
17 5 30 10 30 6 0 10 -13 10 -30z"/>
<path d="M130 469 c-55 -22 -107 -106 -82 -131 8 -8 13 -2 17 18 3 16 10 36
14 43 10 19 50 48 79 56 18 5 22 2 22 -15 0 -28 55 -83 77 -78 29 5 26 36 -5
68 -17 17 -40 30 -51 30 -12 0 -21 5 -21 10 0 12 -17 12 -50 -1z m118 -69 c7
-21 -20 -6 -37 21 l-16 24 24 -16 c14 -9 27 -22 29 -29z"/>
<path d="M460 470 c0 -5 -9 -10 -21 -10 -27 0 -81 -55 -77 -77 2 -10 11 -19
21 -21 22 -5 77 50 77 78 0 17 4 20 23 15 28 -8 68 -37 78 -56 4 -7 11 -27 14
-43 4 -20 9 -26 17 -18 14 14 -6 73 -35 100 -34 32 -97 53 -97 32z m-30 -49
c-12 -24 -29 -35 -38 -26 -4 4 4 15 17 26 29 24 34 24 21 0z"/>
<path d="M290 345 c-15 -18 -10 -45 13 -59 34 -22 73 27 47 59 -16 19 -44 19
-60 0z m46 -16 c10 -17 -13 -36 -27 -22 -12 12 -4 33 11 33 5 0 12 -5 16 -11z"/>
<path d="M140 335 c-27 -32 40 -60 94 -39 21 8 21 40 0 48 -29 11 -81 6 -94
-9z m80 -15 c0 -5 -13 -10 -30 -10 -16 0 -30 5 -30 10 0 6 14 10 30 10 17 0
30 -4 30 -10z"/>
<path d="M403 343 c-18 -7 -16 -40 3 -47 54 -21 121 7 94 39 -12 14 -70 19
-97 8z m77 -23 c0 -5 -13 -10 -30 -10 -16 0 -30 5 -30 10 0 6 14 10 30 10 17
0 30 -4 30 -10z"/>
<path d="M45 299 c-8 -20 11 -68 37 -96 26 -28 90 -51 96 -34 2 6 13 11 24 11
26 0 80 55 76 77 -2 10 -11 19 -21 21 -23 5 -77 -51 -77 -78 0 -16 -4 -20 -16
-16 -9 3 -19 6 -24 6 -19 0 -70 53 -70 73 0 12 -4 29 -10 37 -8 13 -10 12 -15
-1z m203 -61 c-2 -6 -15 -18 -28 -27 -21 -14 -23 -14 -16 -1 16 27 28 40 38
40 5 0 8 -5 6 -12z"/>
<path d="M575 284 c-3 -16 -10 -36 -14 -43 -10 -19 -50 -48 -78 -56 -19 -5
-23 -2 -23 15 0 28 -55 83 -77 78 -10 -2 -19 -11 -21 -21 -4 -22 50 -77 76
-77 11 0 22 -5 24 -12 6 -16 64 5 95 34 29 27 49 86 35 100 -8 8 -13 2 -17
-18z m-146 -65 l16 -24 -24 16 c-27 17 -42 44 -21 37 7 -2 20 -15 29 -29z"/>
<path d="M296 234 c-11 -29 -6 -81 9 -94 22 -18 45 5 45 45 0 46 -9 65 -30 65
-10 0 -21 -7 -24 -16z m34 -44 c0 -16 -4 -30 -10 -30 -5 0 -10 14 -10 30 0 17
5 30 10 30 6 0 10 -13 10 -30z"/>
</g>
</svg>
