<?xml version="1.0" standalone="no"?>
<!DOCTYPE svg PUBLIC "-//W3C//DTD SVG 20010904//EN"
 "http://www.w3.org/TR/2001/REC-SVG-20010904/DTD/svg10.dtd">
<svg version="1.0" xmlns="http://www.w3.org/2000/svg"
 width="64.000000pt" height="64.000000pt" viewBox="0 0 64.000000 64.000000"
 preserveAspectRatio="xMidYMid meet">

<g transform="translate(0.000000,64.000000) scale(0.100000,-0.100000)"
fill="#000000" stroke="none">
<path d="M12 628 c-17 -17 -17 -599 0 -616 14 -14 78 -16 78 -3 0 6 -15 11
-32 13 l-33 3 0 295 0 295 295 0 295 0 0 -295 0 -295 -247 -3 c-154 -1 -248
-6 -248 -12 0 -15 493 -13 508 2 17 17 17 599 0 616 -17 17 -599 17 -616 0z"/>
<path d="M167 582 c-10 -10 -17 -28 -17 -40 0 -25 33 -62 55 -62 21 0 19 -16
-5 -40 -27 -27 -34 -25 -47 10 -18 48 -78 53 -106 8 -16 -25 1 -67 36 -88 88
-54 207 11 207 112 0 40 -18 88 -33 88 -5 0 -6 -8 -1 -17 4 -10 9 -39 12 -66
4 -43 1 -50 -31 -82 -30 -30 -42 -35 -80 -35 -77 0 -126 62 -74 94 24 15 51
-3 55 -38 4 -35 40 -35 76 0 35 36 35 72 0 76 -54 6 -58 68 -5 76 11 2 21 8
21 13 0 16 -46 10 -63 -9z"/>
<path d="M397 589 c-24 -14 -47 -62 -47 -101 0 -105 118 -173 207 -118 35 21
52 63 36 88 -28 45 -88 40 -106 -8 -13 -35 -20 -37 -47 -10 -24 24 -26 40 -5
40 8 0 24 9 35 20 52 52 -9 126 -73 89z m67 -31 c15 -25 -3 -52 -38 -56 -35
-4 -35 -40 0 -76 36 -35 72 -35 76 0 4 35 31 53 56 38 51 -32 2 -94 -75 -94
-65 0 -113 48 -113 113 0 77 62 126 94 75z"/>
<path d="M298 398 c-11 -37 -19 -45 -55 -58 -24 -8 -43 -17 -43 -20 0 -3 19
-12 43 -20 36 -13 44 -21 57 -57 8 -24 17 -43 20 -43 3 0 12 19 20 42 13 37
21 45 58 58 23 8 42 17 42 20 0 3 -19 12 -42 20 -37 13 -45 21 -58 58 -8 23
-17 42 -21 42 -4 0 -13 -19 -21 -42z m36 -33 c4 -15 16 -27 31 -31 14 -3 25
-10 25 -14 0 -4 -11 -11 -25 -14 -15 -4 -27 -16 -31 -31 -8 -32 -20 -32 -28 0
-4 15 -16 27 -31 31 -32 8 -32 20 0 28 15 4 27 16 31 31 3 14 10 25 14 25 4 0
11 -11 14 -25z"/>
<path d="M83 270 c-35 -21 -52 -63 -36 -88 28 -45 88 -40 106 8 13 35 20 37
47 10 27 -27 25 -34 -10 -47 -69 -26 -39 -127 34 -109 34 8 66 60 66 106 0
106 -118 175 -207 120z m153 -34 c29 -29 34 -41 34 -79 0 -77 -62 -126 -94
-74 -15 24 3 51 38 55 35 4 35 40 0 76 -36 35 -72 35 -76 0 -4 -35 -31 -53
-55 -38 -52 32 -3 94 74 94 38 0 50 -5 79 -34z"/>
<path d="M421 272 c-66 -35 -90 -125 -51 -189 21 -35 63 -52 88 -36 45 28 40
88 -8 106 -23 9 -29 16 -24 30 4 14 2 18 -7 15 -8 -3 -15 -16 -17 -31 -3 -21
1 -26 24 -29 34 -4 53 -31 38 -55 -32 -52 -94 -3 -94 74 0 38 5 50 34 79 29
29 41 34 79 34 77 0 126 -62 74 -94 -24 -15 -51 4 -55 38 -3 23 -8 27 -29 24
-15 -2 -28 -9 -31 -17 -3 -9 1 -11 15 -7 14 5 21 -1 30 -24 26 -69 127 -39
109 34 -14 58 -109 84 -175 48z"/>
</g>
</svg>
