<?xml version="1.0" standalone="no"?>
<!DOCTYPE svg PUBLIC "-//W3C//DTD SVG 20010904//EN"
 "http://www.w3.org/TR/2001/REC-SVG-20010904/DTD/svg10.dtd">
<svg version="1.0" xmlns="http://www.w3.org/2000/svg"
 width="64.000000pt" height="64.000000pt" viewBox="0 0 64.000000 64.000000"
 preserveAspectRatio="xMidYMid meet">

<g transform="translate(0.000000,64.000000) scale(0.100000,-0.100000)"
fill="#000000" stroke="none">
<path d="M4 626 c-10 -26 4 -48 28 -44 33 4 33 52 0 56 -13 2 -25 -3 -28 -12z
m36 -16 c0 -5 -4 -10 -10 -10 -5 0 -10 5 -10 10 0 6 5 10 10 10 6 0 10 -4 10
-10z"/>
<path d="M106 606 c-9 -19 -16 -38 -16 -43 0 -4 -20 -16 -45 -26 -25 -11 -45
-23 -45 -27 0 -4 20 -16 45 -27 32 -13 46 -25 50 -43 3 -14 12 -34 20 -44 15
-20 15 -20 30 0 8 10 17 30 20 44 4 18 18 30 50 43 25 11 45 23 45 27 0 4 -20
16 -45 27 -25 10 -45 22 -45 26 0 16 -32 77 -40 77 -4 0 -15 -15 -24 -34z m38
-22 c11 -29 6 -44 -14 -44 -11 0 -20 6 -20 14 0 21 11 46 20 46 4 0 11 -7 14
-16z m-44 -74 c0 -22 -25 -27 -50 -10 -13 9 -13 11 0 20 25 17 50 12 50 -10z
m110 10 c13 -9 13 -11 0 -20 -25 -17 -50 -12 -50 10 0 22 25 27 50 10z m-60
-57 c0 -10 -5 -25 -10 -33 -9 -13 -11 -13 -20 0 -17 25 -12 50 10 50 12 0 20
-7 20 -17z"/>
<path d="M204 626 c-9 -24 4 -48 23 -44 24 4 24 52 0 56 -9 2 -20 -4 -23 -12z"/>
<path d="M287 634 c-4 -4 -7 -50 -7 -103 1 -70 3 -91 11 -78 5 9 19 17 29 17
10 0 24 -8 29 -17 8 -13 10 9 8 82 l-2 100 -30 3 c-17 2 -34 0 -38 -4z"/>
<path d="M394 626 c-9 -24 4 -48 23 -44 12 2 18 12 18 28 0 29 -32 41 -41 16z"/>
<path d="M486 606 c-9 -19 -16 -38 -16 -43 0 -4 -20 -16 -45 -26 -25 -11 -45
-23 -45 -27 0 -4 20 -16 45 -27 32 -13 46 -25 50 -43 3 -14 12 -34 20 -44 15
-20 15 -20 30 0 8 10 17 30 20 44 4 18 18 30 50 43 25 11 45 23 45 27 0 4 -20
16 -45 27 -25 10 -45 22 -45 26 0 16 -32 77 -40 77 -4 0 -15 -15 -24 -34z m38
-22 c11 -29 6 -44 -14 -44 -11 0 -20 6 -20 14 0 21 11 46 20 46 4 0 11 -7 14
-16z m-44 -74 c0 -22 -25 -27 -50 -10 -13 9 -13 11 0 20 25 17 50 12 50 -10z
m110 10 c13 -9 13 -11 0 -20 -25 -17 -50 -12 -50 10 0 22 25 27 50 10z m-60
-57 c0 -10 -5 -25 -10 -33 -9 -13 -11 -13 -20 0 -17 25 -12 50 10 50 12 0 20
-7 20 -17z"/>
<path d="M584 626 c-10 -26 4 -48 28 -44 17 2 23 10 23 28 0 18 -6 26 -23 28
-13 2 -25 -3 -28 -12z m36 -16 c0 -5 -4 -10 -10 -10 -5 0 -10 5 -10 10 0 6 5
10 10 10 6 0 10 -4 10 -10z"/>
<path d="M296 416 c-9 -19 -16 -38 -16 -43 0 -4 -20 -16 -45 -26 -25 -11 -45
-23 -45 -27 0 -4 20 -16 45 -27 32 -13 46 -25 50 -43 3 -14 12 -34 20 -44 15
-20 15 -20 30 0 8 10 17 30 20 44 4 18 18 30 50 43 25 11 45 23 45 27 0 4 -20
16 -45 27 -25 10 -45 22 -45 26 0 16 -32 77 -40 77 -4 0 -15 -15 -24 -34z m38
-22 c11 -29 6 -44 -14 -44 -11 0 -20 6 -20 14 0 21 11 46 20 46 4 0 11 -7 14
-16z m-44 -74 c0 -22 -25 -27 -50 -10 -13 9 -13 11 0 20 25 17 50 12 50 -10z
m110 10 c13 -9 13 -11 0 -20 -25 -17 -50 -12 -50 10 0 22 25 27 50 10z m-60
-57 c0 -10 -5 -25 -10 -33 -9 -13 -11 -13 -20 0 -17 25 -12 50 10 50 12 0 20
-7 20 -17z"/>
<path d="M4 426 c-10 -26 4 -48 28 -44 17 2 23 10 23 28 0 18 -6 26 -23 28
-13 2 -25 -3 -28 -12z m36 -16 c0 -5 -4 -10 -10 -10 -5 0 -10 5 -10 10 0 6 5
10 10 10 6 0 10 -4 10 -10z"/>
<path d="M204 426 c-9 -24 4 -48 23 -44 24 4 24 52 0 56 -9 2 -20 -4 -23 -12z"/>
<path d="M394 426 c-9 -24 4 -48 23 -44 12 2 18 12 18 28 0 29 -32 41 -41 16z"/>
<path d="M584 426 c-10 -26 4 -48 28 -44 17 2 23 10 23 28 0 18 -6 26 -23 28
-13 2 -25 -3 -28 -12z m36 -16 c0 -5 -4 -10 -10 -10 -5 0 -10 5 -10 10 0 6 5
10 10 10 6 0 10 -4 10 -10z"/>
<path d="M4 346 c-3 -8 -4 -25 -2 -38 3 -22 7 -23 103 -25 73 -2 95 0 83 8
-10 5 -18 19 -18 29 0 10 8 24 18 29 12 8 -9 10 -81 11 -76 0 -99 -3 -103 -14z"/>
<path d="M453 349 c9 -5 17 -19 17 -29 0 -10 -8 -24 -17 -29 -13 -8 9 -10 82
-8 l100 2 0 35 0 35 -100 2 c-73 2 -95 0 -82 -8z"/>
<path d="M4 246 c-10 -26 4 -48 28 -44 33 4 33 52 0 56 -13 2 -25 -3 -28 -12z
m36 -16 c0 -5 -4 -10 -10 -10 -5 0 -10 5 -10 10 0 6 5 10 10 10 6 0 10 -4 10
-10z"/>
<path d="M106 226 c-9 -19 -16 -38 -16 -43 0 -4 -20 -16 -45 -26 -25 -11 -45
-23 -45 -27 0 -4 20 -16 45 -27 32 -13 46 -25 50 -43 3 -14 12 -34 20 -44 15
-20 15 -20 30 0 8 10 17 30 20 44 4 18 18 30 50 43 25 11 45 23 45 27 0 4 -20
16 -45 27 -25 10 -45 22 -45 26 0 16 -32 77 -40 77 -4 0 -15 -15 -24 -34z m38
-22 c11 -29 6 -44 -14 -44 -11 0 -20 6 -20 14 0 21 11 46 20 46 4 0 11 -7 14
-16z m-44 -74 c0 -22 -25 -27 -50 -10 -13 9 -13 11 0 20 25 17 50 12 50 -10z
m110 10 c13 -9 13 -11 0 -20 -25 -17 -50 -12 -50 10 0 22 25 27 50 10z m-60
-57 c0 -10 -5 -25 -10 -33 -9 -13 -11 -13 -20 0 -17 25 -12 50 10 50 12 0 20
-7 20 -17z"/>
<path d="M204 246 c-9 -24 4 -48 23 -44 24 4 24 52 0 56 -9 2 -20 -4 -23 -12z"/>
<path d="M394 246 c-9 -24 4 -48 23 -44 12 2 18 12 18 28 0 29 -32 41 -41 16z"/>
<path d="M486 226 c-9 -19 -16 -38 -16 -43 0 -4 -20 -16 -45 -26 -25 -11 -45
-23 -45 -27 0 -4 20 -16 45 -27 32 -13 46 -25 50 -43 3 -14 12 -34 20 -44 15
-20 15 -20 30 0 8 10 17 30 20 44 4 18 18 30 50 43 25 11 45 23 45 27 0 4 -20
16 -45 27 -25 10 -45 22 -45 26 0 16 -32 77 -40 77 -4 0 -15 -15 -24 -34z m38
-22 c11 -29 6 -44 -14 -44 -20 0 -25 15 -14 44 8 20 20 20 28 0z m-44 -74 c0
-22 -25 -27 -50 -10 -13 9 -13 11 0 20 25 17 50 12 50 -10z m110 10 c13 -9 13
-11 0 -20 -25 -17 -50 -12 -50 10 0 22 25 27 50 10z m-60 -57 c0 -10 -5 -25
-10 -33 -9 -13 -11 -13 -20 0 -17 25 -12 50 10 50 12 0 20 -7 20 -17z"/>
<path d="M584 246 c-10 -26 4 -48 28 -44 17 2 23 10 23 28 0 18 -6 26 -23 28
-13 2 -25 -3 -28 -12z m36 -16 c0 -5 -4 -10 -10 -10 -5 0 -10 5 -10 10 0 6 5
10 10 10 6 0 10 -4 10 -10z"/>
<path d="M283 105 l2 -100 35 0 35 0 2 100 c2 73 0 95 -8 83 -5 -10 -19 -18
-29 -18 -10 0 -24 8 -29 18 -8 12 -10 -10 -8 -83z"/>
<path d="M4 46 c-10 -26 4 -48 28 -44 33 4 33 52 0 56 -13 2 -25 -3 -28 -12z
m36 -16 c0 -5 -4 -10 -10 -10 -5 0 -10 5 -10 10 0 6 5 10 10 10 6 0 10 -4 10
-10z"/>
<path d="M204 46 c-9 -24 4 -48 23 -44 24 4 24 52 0 56 -9 2 -20 -4 -23 -12z"/>
<path d="M394 46 c-9 -24 4 -48 23 -44 12 2 18 12 18 28 0 29 -32 41 -41 16z"/>
<path d="M584 46 c-10 -26 4 -48 28 -44 17 2 23 10 23 28 0 18 -6 26 -23 28
-13 2 -25 -3 -28 -12z m36 -16 c0 -5 -4 -10 -10 -10 -5 0 -10 5 -10 10 0 6 5
10 10 10 6 0 10 -4 10 -10z"/>
</g>
</svg>
