<?xml version="1.0" standalone="no"?>
<!DOCTYPE svg PUBLIC "-//W3C//DTD SVG 20010904//EN"
 "http://www.w3.org/TR/2001/REC-SVG-20010904/DTD/svg10.dtd">
<svg version="1.0" xmlns="http://www.w3.org/2000/svg"
 width="64.000000pt" height="64.000000pt" viewBox="0 0 64.000000 64.000000"
 preserveAspectRatio="xMidYMid meet">

<g transform="translate(0.000000,64.000000) scale(0.100000,-0.100000)"
fill="#000000" stroke="none">
<path d="M10 320 l0 -310 310 0 310 0 0 310 0 310 -310 0 -310 0 0 -310z m600
0 l0 -290 -290 0 -290 0 0 290 0 290 290 0 290 0 0 -290z"/>
<path d="M77 562 c-15 -15 -27 -35 -27 -43 0 -19 51 -69 70 -69 19 0 70 50 70
69 0 20 -50 71 -70 71 -9 0 -28 -13 -43 -28z m72 -17 l23 -25 -26 -27 -26 -26
-26 26 -26 27 23 25 c13 13 26 25 29 25 3 0 16 -12 29 -25z"/>
<path d="M294 565 c-9 -14 -22 -25 -29 -25 -21 0 -45 -29 -45 -56 0 -28 3 -29
30 -11 17 10 22 9 30 -3 5 -8 10 -25 10 -37 0 -19 6 -23 30 -23 24 0 30 4 30
23 0 12 5 29 10 37 8 12 13 13 30 3 27 -18 30 -17 30 11 0 27 -24 56 -45 56
-7 0 -20 11 -29 25 -9 14 -21 25 -26 25 -5 0 -17 -11 -26 -25z m44 -33 c3 -18
8 -21 27 -16 12 3 26 1 29 -5 4 -6 0 -11 -10 -11 -24 0 -54 -29 -54 -52 0 -10
-4 -18 -10 -18 -5 0 -10 8 -10 17 0 23 -29 53 -52 53 -11 0 -16 5 -12 11 3 6
17 8 30 5 19 -5 24 -2 24 12 0 38 33 41 38 4z"/>
<path d="M477 562 c-15 -15 -27 -35 -27 -43 0 -19 51 -69 70 -69 19 0 70 50
70 69 0 20 -50 71 -70 71 -9 0 -28 -13 -43 -28z m72 -17 l23 -25 -26 -27 -26
-26 -26 26 -26 27 23 25 c13 13 26 25 29 25 3 0 16 -12 29 -25z"/>
<path d="M116 404 c-9 -8 -16 -21 -16 -27 0 -6 -12 -22 -27 -34 l-28 -23 28
-23 c15 -12 27 -28 27 -34 0 -20 30 -43 56 -43 28 0 29 3 12 30 -11 17 -10 22
2 30 8 5 25 10 38 10 18 0 22 6 22 30 0 24 -4 30 -22 30 -13 0 -30 5 -38 10
-12 8 -13 13 -2 30 6 11 12 22 12 25 0 12 -50 4 -64 -11z m42 -56 c8 -10 23
-18 34 -18 10 0 18 -4 18 -10 0 -5 -8 -10 -17 -10 -23 0 -53 -29 -53 -52 0
-11 -5 -16 -11 -12 -6 3 -8 17 -5 29 5 19 2 24 -16 27 -30 4 -30 32 0 36 17 3
21 8 17 23 -4 10 -3 24 2 31 5 9 9 7 11 -7 2 -11 11 -28 20 -37z"/>
<path d="M460 415 c0 -3 6 -14 13 -25 10 -17 9 -22 -3 -30 -8 -5 -25 -10 -37
-10 -19 0 -23 -6 -23 -30 0 -24 4 -30 23 -30 12 0 29 -5 37 -10 12 -8 13 -13
3 -30 -18 -27 -17 -30 11 -30 26 0 56 23 56 43 0 6 12 22 28 34 l27 23 -27 23
c-16 12 -28 28 -28 34 0 20 -30 43 -56 43 -13 0 -24 -2 -24 -5z m56 -50 c-5
-19 -2 -24 16 -27 13 -2 23 -10 23 -18 0 -8 -10 -16 -23 -18 -18 -3 -21 -8
-16 -27 3 -12 1 -26 -5 -29 -6 -4 -11 0 -11 10 0 24 -29 54 -52 54 -10 0 -18
5 -18 10 0 6 8 10 17 10 23 0 53 29 53 52 0 11 5 16 11 12 6 -3 8 -17 5 -29z"/>
<path d="M277 362 c-15 -15 -27 -35 -27 -43 0 -19 51 -69 70 -69 19 0 70 50
70 69 0 20 -50 71 -70 71 -9 0 -28 -13 -43 -28z m72 -17 l23 -25 -26 -27 -26
-26 -26 26 -26 27 23 25 c13 13 26 25 29 25 3 0 16 -12 29 -25z"/>
<path d="M290 208 c0 -13 -5 -30 -10 -38 -8 -12 -13 -13 -30 -2 -27 17 -30 16
-30 -12 0 -26 23 -56 43 -56 6 0 22 -12 34 -28 l23 -27 23 27 c12 16 28 28 34
28 20 0 43 30 43 56 0 28 -3 29 -30 12 -17 -11 -22 -10 -30 2 -5 8 -10 25 -10
38 0 18 -6 22 -30 22 -24 0 -30 -4 -30 -22z m40 -15 c0 -23 29 -53 52 -53 11
0 16 -5 12 -11 -3 -6 -17 -8 -29 -5 -19 5 -24 2 -27 -16 -2 -13 -10 -23 -18
-23 -8 0 -16 10 -18 23 -3 18 -8 21 -27 16 -12 -3 -26 -1 -29 5 -4 6 0 11 10
11 24 0 54 29 54 52 0 10 5 18 10 18 6 0 10 -8 10 -17z"/>
<path d="M77 162 c-15 -15 -27 -35 -27 -43 0 -19 51 -69 70 -69 19 0 70 50 70
69 0 20 -50 71 -70 71 -9 0 -28 -13 -43 -28z m72 -17 l23 -25 -26 -27 -26 -26
-26 26 -26 27 23 25 c13 13 26 25 29 25 3 0 16 -12 29 -25z"/>
<path d="M477 162 c-15 -15 -27 -35 -27 -43 0 -19 51 -69 70 -69 19 0 70 50
70 69 0 20 -50 71 -70 71 -9 0 -28 -13 -43 -28z m72 -17 l23 -25 -26 -27 -26
-26 -26 26 -26 27 23 25 c13 13 26 25 29 25 3 0 16 -12 29 -25z"/>
</g>
</svg>
